# xmcd
#
# Track frame offsets: 
#        150
#        15227
#        29975
#        45025
#        61480
#        73982
#        85467
#        101452
#        117635
#        131292
#
# Disc length: 1966 seconds
#
# Revision: 0
# Processed by: cddbd v1.5.1PL0 Copyright (c) Steve Scherf et al.
# Submitted via: ExactAudioCopy v0.95a5
#
DISCID=8507ac0a
DTITLE=Various Artist - The Best Of Country
DYEAR=1993
DGENRE=Country
TTITLE0=Mary Chapin Carpenter- Down At The Twist And Shout
TTITLE1=Rosanne Cash-Seven Year Ache
TTITLE2=Ricky Van Shelton-Somebody Lied
TTITLE3=Shenandoah-Next To You, Next To Me
TTITLE4=Joe Diffie-If The Devil Danced (In Empty Pockets)
TTITLE5=Dolly Parton-Why'd You Come Here Looking Like That
TTITLE6=Willie Nelson-Always On My Mind
TTITLE7=Cassandra Vasik-Wildflowers
TTITLE8=Tracey Prescott &Lonesome Daddy-Something Big
TTITLE9=Exile- She's Too Good To Be True
EXTD=
EXTT0=
EXTT1=
EXTT2=
EXTT3=
EXTT4=
EXTT5=
EXTT6=
EXTT7=
EXTT8=
EXTT9=
PLAYORDER=
